<?xml version="1.0" encoding="utf-8"?>
<svg xmlns="http://www.w3.org/2000/svg" viewBox="0 0 640 871.969" width="640" height="1010" font-family="Helvetica, Arial, sans-serif">
  <rect width="640" height="866.474" fill="#ffffff" style="" y="0.526"/>
  <defs>
    <marker id="ah" markerWidth="10" markerHeight="7" refX="9" refY="3.5" orient="auto">
      <polygon points="0 0, 10 3.5, 0 7" fill="#222"/>
    </marker>
    <marker id="ah-light" markerWidth="10" markerHeight="7" refX="9" refY="3.5" orient="auto">
      <polygon points="0 0, 10 3.5, 0 7" fill="#666"/>
    </marker>
  </defs>
  <rect x="20" width="600" height="48" rx="5" fill="#111111" y="19"/>
  <text x="320" y="49" text-anchor="middle" fill="#fff" font-size="16" font-weight="bold" letter-spacing="0.4" style="white-space: pre; font-size: 16px;">AdsorbLab Pro · Analysis Workflow</text>
  <line x1="320" y1="77" x2="320" y2="105.566" stroke="#222" stroke-width="2" marker-end="url(#ah)"/>
  <rect x="20" y="111" width="270" height="124" rx="5" fill="#2a6cb6"/>
  <rect x="30" y="118" width="80" height="18" rx="4" fill="rgba(255,255,255,0.28)"/>
  <text x="70" y="131" text-anchor="middle" fill="#fff" font-size="9" font-weight="bold" style="white-space: pre; font-size: 9px;">DATA INPUT</text>
  <text x="34" y="155" fill="#fff" font-size="13" font-weight="bold" style="white-space: pre; font-size: 13px;">Data Upload</text>
  <text x="34" y="171" fill="#fff" font-size="9.5" style="white-space: pre; font-size: 9.5px;">Import experimental data via CSV</text>
  <text x="34" y="184" fill="#fff" font-size="9.5" style="white-space: pre; font-size: 9.5px;">or Excel upload. Supports absorbance</text>
  <text x="34" y="197" fill="#fff" font-size="9.5" style="white-space: pre; font-size: 9.5px;">readings and direct [C] values.</text>
  <rect x="34" y="206" width="48" height="18" rx="9" fill="rgba(255,255,255,0.28)"/>
  <text x="58" y="219" text-anchor="middle" fill="#fff" font-size="8.5" style="white-space: pre; font-size: 8.5px;">CSV</text>
  <rect x="86" y="206" width="54" height="18" rx="9" fill="rgba(255,255,255,0.28)"/>
  <text x="113" y="219" text-anchor="middle" fill="#fff" font-size="8.5" style="white-space: pre; font-size: 8.5px;">Excel</text>
  <rect x="144" y="206" width="76" height="18" rx="9" fill="rgba(255,255,255,0.28)"/>
  <text x="182" y="219" text-anchor="middle" fill="#fff" font-size="8.5" style="white-space: pre; font-size: 8.5px;">Absorbance</text>
  <rect x="224" y="206" width="62" height="18" rx="9" fill="rgba(255,255,255,0.28)"/>
  <text x="255" y="219" text-anchor="middle" fill="#fff" font-size="8.5" style="white-space: pre; font-size: 8.5px;">Direct [C]</text>
  <line x1="296" y1="189" x2="342" y2="189" stroke="#555" stroke-width="2" marker-end="url(#ah-light)"/>
  <text x="319" y="163" text-anchor="middle" fill="#555" font-size="9.5" font-weight="bold" style="white-space: pre; font-size: 9.5px;">UV-Vis</text>
  <text x="319" y="177" text-anchor="middle" fill="#555" font-size="9.5" font-weight="bold" style="white-space: pre; font-size: 9.5px;">data</text>
  <rect x="350" y="111" width="270" height="124" rx="5" fill="#015a8f"/>
  <rect x="360" y="118" width="86" height="18" rx="4" fill="rgba(255,255,255,0.28)"/>
  <text x="403" y="131" text-anchor="middle" fill="#fff" font-size="9" font-weight="bold" style="white-space: pre; font-size: 9px;">CALIBRATION</text>
  <rect x="452" y="118" width="68" height="18" rx="4" fill="rgba(255,255,255,0.32)" stroke="#fff" stroke-width="1" stroke-dasharray="3,1.5"/>
  <text x="486" y="131" text-anchor="middle" fill="#fff" font-size="8.5" font-weight="bold" style="white-space: pre; font-size: 8.5px;">OPTIONAL</text>
  <text x="364" y="155" fill="#fff" font-size="13" font-weight="bold" style="white-space: pre; font-size: 13px;">UV-Vis Calibration</text>
  <text x="364" y="171" fill="#fff" font-size="9.5" style="white-space: pre; font-size: 9.5px;">Beer–Lambert calibration from</text>
  <text x="364" y="184" fill="#fff" font-size="9.5" style="white-space: pre; font-size: 9.5px;">standard solutions. Slope &amp; R² convert</text>
  <text x="364" y="197" fill="#fff" font-size="9.5" style="white-space: pre; font-size: 9.5px;">absorbance → concentration [C] mg/L.</text>
  <rect x="364" y="206" width="82" height="18" rx="9" fill="rgba(255,255,255,0.28)"/>
  <text x="405" y="219" text-anchor="middle" fill="#fff" font-size="8.5" style="white-space: pre; font-size: 8.5px;">Beer–Lambert</text>
  <rect x="450" y="206" width="46" height="18" rx="9" fill="rgba(255,255,255,0.28)"/>
  <text x="473" y="219" text-anchor="middle" fill="#fff" font-size="8.5" style="white-space: pre; font-size: 8.5px;">R² fit</text>
  <rect x="500" y="206" width="62" height="18" rx="9" fill="rgba(255,255,255,0.28)"/>
  <text x="531" y="219" text-anchor="middle" fill="#fff" font-size="8.5" style="white-space: pre; font-size: 8.5px;">CI bounds</text>
  <rect x="566" y="206" width="50" height="18" rx="9" fill="rgba(255,255,255,0.28)"/>
  <text x="591" y="219" text-anchor="middle" fill="#fff" font-size="8.5" style="white-space: pre; font-size: 8.5px;">→ mg/L</text>
  <rect x="150" y="248" width="340" height="22" rx="5" fill="none" stroke="#2a6cb6" stroke-width="1.2" stroke-dasharray="5,2.5"/>
  <text x="320" y="263" text-anchor="middle" fill="#1a5a9e" font-size="9" style="white-space: pre; font-size: 9px;"> Direct concentration path — skip calibration if [C] is already known</text>
  <line x1="320" y1="272" x2="320" y2="302" stroke="#222" stroke-width="2" marker-end="url(#ah)"/>
  <rect x="20" y="305.566" width="600" height="214.62" rx="5" fill="#e6ede6" stroke="#999" stroke-width="1" style=""/>
  <text x="320" y="323" text-anchor="middle" fill="#333" font-size="10" font-weight="bold" letter-spacing="2" style="white-space: pre; font-size: 10px;">ANALYSIS MODULES</text>
  <rect x="32" y="334" width="184" height="86.169" rx="4" fill="#005548" style=""/>
  <circle cx="202" cy="346" r="10" fill="rgba(255,255,255,0.25)"/>
  <text x="202" y="350" text-anchor="middle" fill="#fff" font-size="9" font-weight="bold" style="white-space: pre; font-size: 9px;">1</text>
  <text x="44" y="352" fill="#fff" font-size="12" font-weight="bold" style="white-space: pre; font-size: 12px;">Isotherm Analysis</text>
  <text x="44" y="370" fill="#fff" font-size="9.5" style="white-space: pre; font-size: 9.5px;">Langmuir</text>
  <text x="44" y="384" fill="#fff" font-size="9.5" style="white-space: pre; font-size: 9.5px;">Freundlich</text>
  <text x="44" y="398" fill="#fff" font-size="9.5" style="white-space: pre; font-size: 9.5px;">Temkin</text>
  <text x="44" y="412" fill="#fff" font-size="9.5" style="white-space: pre; font-size: 9.5px;">Sips</text>
  <rect x="226" y="334" width="184" height="86.764" rx="4" fill="#005548" style=""/>
  <circle cx="396" cy="346" r="10" fill="rgba(255,255,255,0.25)"/>
  <text x="396" y="350" text-anchor="middle" fill="#fff" font-size="9" font-weight="bold" style="white-space: pre; font-size: 9px;">2</text>
  <text x="238" y="352" fill="#fff" font-size="12" font-weight="bold" style="white-space: pre; font-size: 12px;">Kinetics &amp; Diffusion</text>
  <text x="238" y="370" fill="#fff" font-size="9.5" style="white-space: pre; font-size: 9.5px;">PFO · PSO · rPSO (Bullen)</text>
  <text x="238" y="384" fill="#fff" font-size="9.5" style="white-space: pre; font-size: 9.5px;">Elovich · IPD / Weber–Morris</text>
  <text x="238" y="398" fill="#fff" font-size="9.5" style="white-space: pre; font-size: 9.5px;">Boyd Plot · Film / Pore (HSDM)</text>
  <text x="238" y="412" fill="#fff" font-size="9.5" style="white-space: pre; font-size: 9.5px;">Biot Number · Rate-Limiting ID</text>
  <rect x="420" y="334" width="188" height="87.952" rx="4" fill="#005548" style=""/>
  <circle cx="594" cy="346" r="10" fill="rgba(255,255,255,0.25)"/>
  <text x="594" y="350" text-anchor="middle" fill="#fff" font-size="9" font-weight="bold" style="white-space: pre; font-size: 9px;">3</text>
  <text x="432" y="352" fill="#fff" font-size="12" font-weight="bold" style="white-space: pre; font-size: 12px;">Thermodynamics</text>
  <text x="432" y="370" fill="#fff" font-size="9.5" style="white-space: pre; font-size: 9.5px;">Van 't Hoff</text>
  <text x="432" y="384" fill="#fff" font-size="9.5" style="white-space: pre; font-size: 9.5px;">ΔG° · ΔH° · ΔS°</text>
  <text x="432" y="398" fill="#fff" font-size="9.5" style="white-space: pre; font-size: 9.5px;">Kd method selection</text>
  <text x="432" y="412" fill="#fff" font-size="9.5" style="white-space: pre; font-size: 9.5px;">Mechanistic interpretation</text>
  <rect x="32" y="432" width="184" height="76.065" rx="4" fill="#005548" style=""/>
  <circle cx="202" cy="444" r="10" fill="rgba(255,255,255,0.25)"/>
  <text x="202" y="448" text-anchor="middle" fill="#fff" font-size="9" font-weight="bold" style="white-space: pre; font-size: 9px;">4</text>
  <text x="44" y="450" fill="#fff" font-size="12" font-weight="bold" style="white-space: pre; font-size: 12px;">Competitive Adsorption</text>
  <text x="44" y="468" fill="#fff" font-size="9.5" style="white-space: pre; font-size: 9.5px;">Ext. Langmuir</text>
  <text x="44" y="482" fill="#fff" font-size="9.5" style="white-space: pre; font-size: 9.5px;">Ext. Freundlich (SRS)</text>
  <text x="44" y="496" fill="#fff" font-size="9.5" style="white-space: pre; font-size: 9.5px;">Selectivity Coeff.</text>
  <rect x="226" y="432" width="184" height="76.66" rx="4" fill="#005548" style=""/>
  <circle cx="396" cy="444" r="10" fill="rgba(255,255,255,0.25)"/>
  <text x="396" y="448" text-anchor="middle" fill="#fff" font-size="9" font-weight="bold" style="white-space: pre; font-size: 9px;">5</text>
  <text x="238" y="450" fill="#fff" font-size="12" font-weight="bold" style="white-space: pre; font-size: 12px;">Parameter Effects</text>
  <text x="238" y="468" fill="#fff" font-size="9.5" style="white-space: pre; font-size: 9.5px;">pH Effect</text>
  <text x="238" y="482" fill="#fff" font-size="9.5" style="white-space: pre; font-size: 9.5px;">Temperature</text>
  <text x="238" y="496" fill="#fff" font-size="9.5" style="white-space: pre; font-size: 9.5px;">Dosage</text>
  <rect x="420" y="432" width="188" height="76.065" rx="4" fill="#005548" style=""/>
  <circle cx="594" cy="444" r="10" fill="rgba(255,255,255,0.25)"/>
  <text x="594" y="448" text-anchor="middle" fill="#fff" font-size="9" font-weight="bold" style="white-space: pre; font-size: 9px;">6</text>
  <text x="432" y="450" fill="#fff" font-size="12" font-weight="bold" style="white-space: pre; font-size: 12px;">Multi-Study Comparison</text>
  <text x="432" y="468" fill="#fff" font-size="9.5" style="white-space: pre; font-size: 9.5px;">Overlay datasets</text>
  <text x="432" y="482" fill="#fff" font-size="9.5" style="white-space: pre; font-size: 9.5px;">Radar charts</text>
  <text x="432" y="496" fill="#fff" font-size="9.5" style="white-space: pre; font-size: 9.5px;">Cross-study ranking</text>
  <line x1="320" y1="520" x2="320" y2="550.859" stroke="#222" stroke-width="2" marker-end="url(#ah)"/>
  <rect x="20" y="551" width="600" height="61.829" rx="5" fill="#2e0990" style=""/>
  <text x="320" y="573" text-anchor="middle" fill="#fff" font-size="13" font-weight="bold" style="white-space: pre; font-size: 13px;">Statistical Validation &amp; Model Selection</text>
  <rect x="62" y="583" width="34" height="18" rx="9" fill="rgba(255,255,255,0.24)"/>
  <text x="79" y="596" text-anchor="middle" fill="#fff" font-size="9" style="white-space: pre; font-size: 9px;">R²</text>
  <rect x="100" y="583" width="50" height="18" rx="9" fill="rgba(255,255,255,0.24)"/>
  <text x="125" y="596" text-anchor="middle" fill="#fff" font-size="9" style="white-space: pre; font-size: 9px;">Adj-R²</text>
  <rect x="154" y="583" width="68" height="18" rx="9" fill="rgba(255,255,255,0.24)"/>
  <text x="188" y="596" text-anchor="middle" fill="#fff" font-size="9" style="white-space: pre; font-size: 9px;">AIC / AICc</text>
  <rect x="226" y="583" width="36" height="18" rx="9" fill="rgba(255,255,255,0.24)"/>
  <text x="244" y="596" text-anchor="middle" fill="#fff" font-size="9" style="white-space: pre; font-size: 9px;">BIC</text>
  <rect x="266" y="583" width="68" height="18" rx="9" fill="rgba(255,255,255,0.24)"/>
  <text x="300" y="596" text-anchor="middle" fill="#fff" font-size="9" style="white-space: pre; font-size: 9px;">Akaike Wt</text>
  <rect x="338" y="583" width="74" height="18" rx="9" fill="rgba(255,255,255,0.24)"/>
  <text x="375" y="596" text-anchor="middle" fill="#fff" font-size="9" style="white-space: pre; font-size: 9px;">Q² (PRESS)</text>
  <rect x="416" y="583" width="80" height="18" rx="9" fill="rgba(255,255,255,0.24)"/>
  <text x="456" y="596" text-anchor="middle" fill="#fff" font-size="9" style="white-space: pre; font-size: 9px;">Bootstrap CI</text>
  <rect x="502" y="583" width="72" height="18" rx="9" fill="rgba(255,255,255,0.24)"/>
  <text x="538" y="596" text-anchor="middle" fill="#fff" font-size="9" style="white-space: pre; font-size: 9px;">RMSE / χ²</text>
  <line x1="320" y1="610.84" x2="320" y2="627" stroke="#222" stroke-width="1.8" style=""/>
  <line x1="160" y1="627" x2="480" y2="627" stroke="#222" stroke-width="1.8"/>
  <line x1="160" y1="627" x2="160" y2="654.293" stroke="#222" stroke-width="1.8" marker-end="url(#ah)"/>
  <line x1="480" y1="627" x2="480" y2="654.293" stroke="#222" stroke-width="1.8" marker-end="url(#ah)"/>
  <rect x="20" y="654" width="290" height="83.358" rx="4" fill="#163f9e" style=""/>
  <text x="34" y="676" fill="#fff" font-size="12" font-weight="bold" style="white-space: pre; font-size: 12px;">Study Overview &amp; Model Ranking</text>
  <text x="34" y="694" fill="#fff" font-size="9.5" style="white-space: pre; font-size: 9.5px;">Diagnostic checklist per study. Isotherm &amp;</text>
  <text x="34" y="708" fill="#fff" font-size="9.5" style="white-space: pre; font-size: 9.5px;">kinetic model tables with Akaike weights.</text>
  <text x="34" y="722" fill="#fff" font-size="9.5" style="white-space: pre; font-size: 9.5px;">Auto ranking of best-fitting model per category.</text>
  <rect x="330" y="654" width="290" height="83.358" rx="4" fill="#163f9e" style=""/>
  <text x="344" y="676" fill="#fff" font-size="12" font-weight="bold" style="white-space: pre; font-size: 12px;">3D Parameter Explorer</text>
  <text x="344" y="694" fill="#fff" font-size="9.5" style="white-space: pre; font-size: 9.5px;">Interactive surface plots —</text>
  <text x="344" y="708" fill="#fff" font-size="9.5" style="white-space: pre; font-size: 9.5px;">Cₑ × T, pH × T response</text>
  <text x="344" y="722" fill="#fff" font-size="9.5" style="white-space: pre; font-size: 9.5px;">surfaces and visualisations.</text>
  <line x1="160" y1="738" x2="160" y2="754" stroke="#222" stroke-width="1.8"/>
  <line x1="480" y1="739" x2="480" y2="755" stroke="#222" stroke-width="1.8"/>
  <line x1="160" y1="754" x2="480" y2="754" stroke="#222" stroke-width="1.8"/>
  <line x1="320" y1="754" x2="320" y2="790.18" stroke="#222" stroke-width="2" marker-end="url(#ah)"/>
  <rect x="20" y="793.132" width="600" height="70.33" rx="5" fill="#9b1616" style=""/>
  <text x="320" y="810" text-anchor="middle" fill="#fff" font-size="13" font-weight="bold" style="white-space: pre; font-size: 13px;">Export</text>
  <rect x="31" y="824" width="76" height="26" rx="5" fill="rgba(255,255,255,0.22)"/>
  <text x="71" y="841" text-anchor="middle" fill="#fff" font-size="9" style="white-space: pre; font-size: 9px;">Word</text>
  <rect x="113" y="824" width="76" height="26" rx="5" fill="rgba(255,255,255,0.22)"/>
  <text x="150" y="841" text-anchor="middle" fill="#fff" font-size="9" style="white-space: pre; font-size: 9px;">TIFF</text>
  <rect x="195" y="824" width="72" height="26" rx="5" fill="rgba(255,255,255,0.22)"/>
  <text x="231" y="841" text-anchor="middle" fill="#fff" font-size="9" style="white-space: pre; font-size: 9px;">PNG</text>
  <rect x="273" y="824" width="70" height="26" rx="5" fill="rgba(255,255,255,0.22)"/>
  <text x="309" y="841" text-anchor="middle" fill="#fff" font-size="9" style="white-space: pre; font-size: 9px;">SVG</text>
  <rect x="349" y="824" width="70" height="26" rx="5" fill="rgba(255,255,255,0.22)"/>
  <text x="382" y="841" text-anchor="middle" fill="#fff" font-size="9" style="white-space: pre; font-size: 9px;">PDF</text>
  <rect x="425" y="824" width="186" height="26" rx="5" fill="rgba(255,255,255,0.22)"/>
  <rect x="429" y="828" width="28" height="18" rx="4" fill="rgba(255,255,255,0.28)"/>
  <text x="443" y="841" text-anchor="middle" fill="#fff" font-size="8.5" font-weight="bold" style="white-space: pre; font-size: 8.5px;">zip</text>
  <text x="535" y="841" text-anchor="middle" fill="#fff" font-size="9" style="white-space: pre; font-size: 9px;">Complete Package (Tables + Figures)</text>
</svg>